<?xml version="1.0" encoding="UTF-8"?>
<svg id="Layer_1" data-name="Layer 1" xmlns="http://www.w3.org/2000/svg" viewBox="0 0 363.37 363.37">
  <defs>
    <style>
      .cls-1 {
        stroke: #7986f7;
        stroke-width: 30px;
      }

      .cls-1, .cls-2, .cls-3, .cls-4 {
        stroke-linecap: round;
        stroke-linejoin: round;
      }

      .cls-1, .cls-3 {
        fill: none;
      }

      .cls-2, .cls-3, .cls-4 {
        stroke: #000;
        stroke-width: 10px;
      }

      .cls-2, .cls-5 {
        fill: #3c3e60;
      }

      .cls-6 {
        fill: #fff2c7;
      }

      .cls-7 {
        fill: #a5a7bf;
      }

      .cls-8 {
        fill: #ffa035;
      }

      .cls-4 {
        fill: #18c94f;
      }
    </style>
  </defs>
  <path class="cls-6" d="m270.97,324.58c47.56-29.78,79.19-82.64,79.19-142.89,0-93.04-75.43-168.47-168.47-168.47S13.22,88.64,13.22,181.69s75.43,168.47,168.47,168.47c20.5,0,40.15-3.66,58.33-10.37"/>
  <path class="cls-4" d="m82.18,137.76c-14.26,7.14-13.12,30.13-3.1,38.47,17.55,3.56,17.67-32.95,3.44-38.47"/>
  <ellipse class="cls-7" cx="139.81" cy="112.5" rx="28.71" ry="50.15" transform="translate(-15.17 22.03) rotate(-8.55)"/>
  <ellipse class="cls-7" cx="244.56" cy="182.01" rx="50.15" ry="28.71" transform="translate(-42.32 285.14) rotate(-56.43)"/>
  <path class="cls-1" d="m265.51,315.83c44.65-27.96,74.34-77.58,74.34-134.15,0-87.35-70.81-158.16-158.16-158.16S23.53,94.34,23.53,181.69s70.81,158.16,158.16,158.16c19.25,0,37.69-3.44,54.76-9.74l29.06-14.28Z"/>
  <ellipse class="cls-7" cx="152.09" cy="238.22" rx="28.71" ry="50.15" transform="translate(-109.78 131.9) rotate(-35.35)"/>
  <path class="cls-3" d="m234.76,41.77C58.95-17.1-49.7,223.98,112.36,314.67c173.22,88.29,310.97-166.17,142.17-262.84"/>
  <path class="cls-3" d="m161.59,76.79c-84.21-54.71-48.25,125.45.69,80.8"/>
  <path class="cls-4" d="m268.89,84.42c3.25,15.46-11.76,31.12-27.4,28.82-9.69-14.84,13.53-35.34,29.48-29.16"/>
  <path class="cls-3" d="m167.22,282.49c31.92,2.45,20.99-37.71,12.83-55.83-13.74-35.55-64.35-50.58-69.35-1.74"/>
  <ellipse class="cls-8" cx="241.99" cy="180.3" rx="33.39" ry="16.48" transform="translate(-42.05 282.24) rotate(-56.43)"/>
  <ellipse class="cls-8" cx="142.25" cy="115.12" rx="15.69" ry="31.8" transform="translate(-9.96 13.54) rotate(-5.26)"/>
  <ellipse class="cls-8" cx="154.02" cy="235.01" rx="15.81" ry="32.04" transform="translate(-108.73 135.45) rotate(-36.01)"/>
  <path class="cls-2" d="m162.63,157.59c43.63,35.17,47.7-118.67,3.18-97.08-5.44,31.41,3.28,64.32-3.18,96.74"/>
  <path class="cls-3" d="m227.97,174.53c6.26-9.19,35.77-33.66,38.07-11.86-.88,15.04-48.32,68.97-45.64,29.45"/>
  <path class="cls-3" d="m244.56,140.56c-8.98,3.08-17.72,9.89-24,20.17-12.55,18-29.35,68.01,6.57,66.56"/>
  <path class="cls-3" d="m283.65,169.73c-1.41-19.66-12.37-29.66-25.37-30.91"/>
  <path class="cls-5" d="m102.75,270.89s23.85,21.26,32.2,22.44c8.35,1.18-18.47-58.27-18.47-58.27l-10.11-9.79-3.62,45.62Z"/>
  <path class="cls-2" d="m110.35,224.93c-41.16-28.99-32.55,23.94,1.57,52.82"/>
  <path class="cls-2" d="m126.72,288.88c10.5,6.69,22.32,10.3,34.61,8.18,29.42-8.77-47.71-52.98-50.28-71.79"/>
  <path class="cls-3" d="m170.28,240.77c2.8-14.94-37.1-47.06-40.85-23.94.23,12.34,42.17,62.77,43.4,32.58"/>
  <path class="cls-2" d="m307.58,172.5c3.35,34.13-57.91,92.01-81.46,60.63,8.71-8.42,83.66-102.4,81.46-60.98"/>
  <path class="cls-4" d="m208.48,282.9c4.51.22,9.3.14,12.89,3.59,37.51,14.8,32.64-47.77-2.14-2.37"/>
  <path class="cls-3" d="m136.04,141.4c25.24,29.49,20.83-72.02-1.95-52.59-8.48,11.45-6.8,26.39-6.62,39.74"/>
  <path class="cls-3" d="m270.97,324.58c47.56-29.78,79.19-82.64,79.19-142.89,0-93.04-75.43-168.47-168.47-168.47S13.22,88.64,13.22,181.69s75.43,168.47,168.47,168.47c20.5,0,40.15-3.66,58.33-10.37"/>
</svg>