<?xml version="1.0" encoding="UTF-8"?>
<svg id="Layer_1" data-name="Layer 1" xmlns="http://www.w3.org/2000/svg" viewBox="0 0 363.37 363.37">
  <defs>
    <style>
      .cls-1 {
        fill: #fff;
      }

      .cls-2 {
        fill: #18c94f;
        stroke: #000;
        stroke-linejoin: round;
        stroke-width: 12px;
      }

      .cls-2, .cls-3 {
        stroke-linecap: round;
      }

      .cls-4 {
        fill: #fce395;
      }

      .cls-3 {
        fill: none;
        stroke: #c4803d;
        stroke-miterlimit: 10;
        stroke-width: 60px;
      }

      .cls-5 {
        fill: #f2433b;
      }

      .cls-6 {
        fill: #c4803d;
      }
    </style>
  </defs>
  <path class="cls-4" d="m79.42,280.53c4.97-220.06,196.21-201.4,196.21-201.4l60.13,256.71-256.34-55.3Z"/>
  <path class="cls-5" d="m103.2,228.23c28.84-120.47,118.47-126.85,153.24-127.11,6-.05,11.23,4.08,12.6,9.93l43.71,186.61c2.15,9.19-6,17.49-15.23,15.5l-148.54-40.06c-9.38-3.76-11.25-40.91-20.6-37.08-10.12,4.14-26.05-4.17-25.18-7.78Z"/>
  <circle class="cls-1" cx="180.68" cy="178.42" r="37.72"/>
  <path class="cls-1" d="m297.4,165.38c-26.47.81-43.01,24.51-38.59,44.87s16.14,33.33,56.18,23.74"/>
  <path class="cls-1" d="m237.32,310.62c11.35-23.92-2.2-49.46-22.33-54.81s-37.02-.84-46.75,39.17"/>
  <polygon class="cls-4" points="119.97 278.94 119.97 329.01 136.59 335.83 149.19 328.77 149.19 306.37 162.99 301.2 166.16 285.12 119.97 278.94"/>
  <polygon class="cls-6" points="68.8 278.94 82.36 257.95 84.5 243.7 105.38 246.9 119.97 263.75 119.97 288.09 68.8 278.94"/>
  <path class="cls-3" d="m252.65,52.18s-178.75,3.84-200.13,200.8"/>
  <path d="m344.69,324.79v5.71c-.67-.01-.77.49-.77.97,0,1.97-1.13,3.44-2.23,4.85-4.31,5.51-10.24,5.91-16.37,4.6-5.89-1.25-11.75-2.7-17.62-4.04-3.97-.9-7.96-1.85-11.92-2.88-4.01-1.04-8.15-1.68-12.2-2.65-3.66-.88-7.39-1.51-11.01-2.52-2.78-.77-5.63-1.33-8.42-1.84-3.18-.58-6.34-1.36-9.48-2.04-5.43-1.19-10.88-2.37-16.26-3.79-3.12-.82-6.42-1.02-9.48-2-3.21-1.04-6.51-1.73-9.77-2.37-5.09-.99-10.16-2.13-15.19-3.3-5.53-1.28-11.13-2.32-16.62-3.81-4.28-1.16-8.58-2.25-12.93-3.07-2.47-.46-4.96-1.33-7.54.65-1.82,1.39-4.22,2.22-6.82,2.07-2.96-.17-4.59,1.65-4.6,4.6-.01,2.92-.17,5.85,0,8.77.16,2.79-.79,5.33-2.01,7.57-3.43,6.27-8.62,10.35-15.98,11.11-5.73.59-11.03-.52-15.53-4.32-4.91-4.15-7.76-9.34-7.75-15.91,0-8.7-.02-17.41.01-26.11,0-1.06-.11-1.9-1.26-2.18-3.26-.79-6.5-1.71-9.8-2.28-3.4-.59-6.68-1.62-10.05-2.28-3.23-.64-6.43-1.4-9.62-2.19-3.33-.82-6.73-1.36-10.05-2.24-1.69-.45-3.42-1.18-5.17-.47-1.68.69-3.39,1.2-5.15,1.66-7.09,1.85-14.09,1.51-20.95-.77-3.48-1.16-6.64-3.07-9.59-5.37-8.32-6.49-13.16-14.94-13.67-25.43-.47-9.62-.12-19.28,1.24-28.86.27-1.88.03-3.85.45-5.68,1.53-6.77,2.1-13.71,3.9-20.43,1.28-4.77,2.21-9.65,3.74-14.34,1.26-3.86,2.42-7.75,3.81-11.58,2.01-5.53,3.96-11.09,6.38-16.44,2.92-6.45,6.06-12.79,9.49-19,3.37-6.09,6.94-12.05,10.82-17.81,7.03-10.43,14.86-20.24,23.54-29.38,4.76-5.01,9.78-9.72,14.81-14.44,5.38-5.05,11.16-9.59,16.99-14.03,5.26-4,10.88-7.53,16.48-11.07,7.08-4.47,14.45-8.37,21.94-12.06,5.2-2.56,10.58-4.77,15.98-6.89,6.57-2.58,13.29-4.74,20.07-6.75,4.16-1.24,8.36-2.31,12.55-3.35,5.53-1.38,11.16-2.54,16.81-3.25,7.12-.89,14.23-2.18,21.46-1.81,1.42.07,2.85-.09,4.16-.76h15.09c.4,1.01,1.31.81,2.07.8,2.51-.04,4.8.93,6.99,1.85,3.19,1.33,6.14,3.2,8.86,5.42,5.02,4.1,8.64,9.25,10.91,15.19,1.87,4.88,2.26,10.14,1.76,15.39-.22,2.27-.55,4.51-1.09,6.76-.62,2.55-2.58,4.77-1.43,7.87,1.2,3.22,1.44,6.79,2.38,10.13,1.6,5.68,2.54,11.51,4.01,17.23,1.43,5.56,2.64,11.22,3.78,16.86,1.04,5.19,2.47,10.29,3.41,15.49.51,2.83,1.04,5.7,1.79,8.43,1.57,5.71,2.44,11.56,4,17.25.9,3.28,1.37,6.68,2.27,9.97.79,2.9,1.41,5.85,1.93,8.78.57,3.18,1.24,6.4,2.06,9.46,1.41,5.3,2.45,10.68,3.69,16,1.27,5.48,2.58,10.97,3.66,16.5.94,4.78,2.33,9.47,3.29,14.25.98,4.86,2.35,9.62,3.28,14.47,1.08,5.6,2.58,11.1,3.68,16.7.74,3.76,1.68,7.47,2.52,11.21.58,2.61,1,5.26,1.73,7.82.99,3.49,1.6,7.05,2.33,10.59.6,2.9,1.19,5.84,1.98,8.63.91,3.21,1.69,6.49,2.33,9.72,1.03,5.21,2.84,10.27,3.14,15.62.02.41.25.78.74.85Zm-69.07-245.66c-8.68,5.44-12.04,6.5-18.72,6.92-10.37.65-20.72,1.05-31.01,2.79-6.68,1.13-13.22,2.72-19.69,4.54-3.71,1.05-7.38,2.47-11.03,3.85-6.11,2.32-11.96,5.13-17.78,8.04-6.61,3.31-12.7,7.51-18.86,11.56-2.63,1.73-5.28,1.54-7.79-.57-1.97-1.66-2.5-4.87-1.29-7.43.67-1.43,1.82-2.33,3.08-3.22,4.88-3.42,9.86-6.7,15.07-9.55,7.45-4.08,15.1-7.81,23.09-10.79,5.49-2.04,11.06-3.8,16.69-5.41,8.42-2.41,17.01-3.9,25.65-5.05,7-.93,14.09-1,21.15-1.25,4.68-.17,9.11-1.34,12.84-4.09,4.52-3.33,7.61-7.7,8.94-13.43,1.28-5.53.62-10.69-1.85-15.54-3.85-7.56-10.4-11.55-18.76-12.22-9.12-.73-18.19.68-27.24,1.45-5.23.45-10.46,1.37-15.65,2.42-5.36,1.08-10.73,2.14-15.98,3.63-4.07,1.16-8.15,2.32-12.19,3.64-5.81,1.9-11.53,4.01-17.14,6.38-6.66,2.82-13.14,6.09-19.54,9.5-7.87,4.19-15.31,8.99-22.63,14.02-5.52,3.8-10.74,8.02-15.82,12.38-5.54,4.76-10.94,9.69-15.92,15.04-4.38,4.7-8.69,9.48-12.72,14.5-4.84,6.01-9.38,12.24-13.59,18.7-3.47,5.33-6.72,10.82-9.63,16.5-2.13,4.15-4.41,8.25-6.24,12.53-1.73,4.05-3.38,8.14-4.99,12.25-1.95,4.95-3.67,9.99-5.2,15.06-1.23,4.1-2.21,8.33-3.33,12.47-1.82,6.69-2.94,13.51-4,20.3-1.28,8.16-1.78,16.46-2.05,24.74-.22,6.78-.52,13.59,3.57,19.58,3.34,4.88,7.89,8.31,13.64,9.52,5.94,1.25,11.8.68,17.18-2.7,3.56-2.24,6.37-5.17,8.28-8.84,2.36-4.53,3-9.53,2.84-14.57-.33-10.44,1.3-20.71,3.13-30.88,1.4-7.78,3.63-15.44,6.29-22.94,2.63-7.4,5.72-14.58,9.2-21.62,2.8-5.67,5.92-11.15,9.4-16.4,1.72-2.59,3.08-5.46,5.42-7.58,2.6-2.37,5.96-2.42,8.42-.26,1.94,1.7,2.84,6.03,1.49,7.98-2.63,3.81-5.26,7.62-7.63,11.61-2.92,4.91-5.67,9.89-7.98,15.11-1.68,3.8-3.34,7.59-4.85,11.46-1.49,3.83-2.84,7.72-3.91,11.65-1.9,6.95-3.74,13.94-4.53,21.15-.41,3.7-1.45,7.31-1.35,11.09.09,3.21.02,3.27,3.22,3.19,7.64-.19,14.93.72,21.36,5.45,4.41,3.24,7.74,7.33,9.94,12.22,1.9,4.22,2.23,8.84,2.22,13.47-.04,16.18-.03,32.36,0,48.55,0,4.83,2.34,7.76,6.99,8.67,3.18.62,7.75-1.82,8.55-5.65.71-3.38.21-6.76.38-10.14.16-3.3.92-6.5,2.78-9.16,3.23-4.63,7.95-6.89,13.54-7.41,2.6-.25,3.8-1.61,3.69-4.19-.38-8.24.22-16.27,3.98-23.88,3.28-6.64,7.73-12.3,13.61-16.65,5.59-4.13,11.91-6.93,18.89-7.99,3.63-.55,7.25-1,10.95-.57,6.14.71,11.97,2.31,17.46,5.24,5.19,2.77,9.64,6.45,13.28,10.97,4.8,5.96,7.96,12.74,9.28,20.39,1.71,9.93.06,19.24-4.55,28.08-.74,1.42-.36,1.68.92,2,7.96,1.99,16.01,3.59,24.01,5.39,6.84,1.54,13.68,3.11,20.53,4.64,6.38,1.43,12.75,2.87,19.12,4.33,6.5,1.48,12.99,2.98,19.49,4.46,1.31.3,2.18-.54,1.91-1.85-.73-3.57-1.35-7.17-2.24-10.71-1.65-6.53-2.85-13.17-4.46-19.7-1.84-7.44-3.32-14.95-5.13-22.39-1.51-6.22-2.83-12.49-4.21-18.75-.67-3.02-1.43-6.04-1.88-9.1-.64-4.34-.97-4.59-4.86-2.64-.24.12-.5.21-.75.31-6.53,2.54-13.31,3.65-20.28,3.07-4.44-.37-8.8-1.41-12.88-3.22-3.99-1.76-7.68-4.02-11.14-6.77-4.87-3.88-8.46-8.67-11.35-14.08-2.77-5.19-4.18-10.76-4.63-16.58-.67-8.67.96-16.93,5.09-24.58,2.91-5.38,6.89-9.92,11.72-13.72,3.52-2.76,7.35-5.09,11.52-6.53,5.22-1.8,10.64-3.12,16.27-2.93,1.02.03,1.06-.23.99-1.28-.16-2.63-1.2-4.99-1.74-7.5-1.47-6.85-2.83-13.73-4.44-20.55-.93-3.93-1.98-7.85-2.79-11.78-1.15-5.53-2.55-10.99-3.65-16.53-.69-3.44-1.32-6.9-2.25-10.28-1.02-3.71-1.29-7.61-2.93-11.34Zm-37.33,207.6c-.38-6.67-2.44-13.12-6.74-18.78-4.83-6.35-11.38-9.81-19-11.75-6.04-1.54-11.69-.35-17.28,1.7-3.92,1.43-7.4,3.65-10.42,6.54-3.49,3.35-6.12,7.37-7.74,11.86-1.78,4.94-2.13,10.12-1.45,15.41.24,1.86.99,2.47,2.5,2.77,4.71.94,9.38,2.04,14.04,3.2,2.01.5,4.06,1.03,6.11,1.36,5.06.82,10.02,2.08,14.99,3.23,5.72,1.33,11.54,2.27,17.16,4.01.72.22,1.15.04,1.55-.54,3.84-5.62,6.04-11.78,6.27-19.01Zm55.4-52.66c3.07.35,7.73-1.27,12.28-3.25,2.95-1.29,3.82-2.42,3.16-4.89-1.23-4.56-2.1-9.19-3.15-13.79-.77-3.36-1.68-6.69-2.44-10.05-1.19-5.32-2.29-10.67-3.45-16-.9-4.14-1.79-8.29-2.79-12.41-.21-.87-.2-2.14-1.6-2.27-8.32-.78-16.07.98-22.7,6.08-6.07,4.67-10.11,10.74-11.8,18.46-2.07,9.5-.07,17.92,5.59,25.58,6.16,8.34,14.58,12.27,26.89,12.52Zm-179.53,39.54c.07-4.4.05-8.78-2.4-12.71-1.97-3.15-4.57-5.41-8.13-6.76-4.17-1.58-8.42-1-12.65-1.15-1.19-.04-1.62.38-1.81,1.57-.67,4.17-1.39,8.34-3.53,12.08-.96,1.68-1.95,3.34-2.95,5-.44.72-.56,1.18.53,1.37,4.69.84,9.35,1.93,13.98,3.03,5.22,1.24,10.54,2.1,15.68,3.64,1.14.34,1.31-.03,1.29-.98-.02-1.7,0-3.39,0-5.09Z"/>
  <path d="m136.61,177.57c-.76-24.22,19.95-44.3,43.71-44.24,25.03.06,44.47,19.79,44.43,44.12-.04,24.37-19.2,44.14-44.6,44.18-23.33.04-44.13-19.76-43.55-44.05Zm75.49-.09c-.33-17.27-14.12-31.59-31.95-31.39-16.96.18-31.06,14.24-30.95,31.62.11,17.64,14.48,31.46,31.85,31.2,17.26-.25,30.72-14.14,31.06-31.43Z"/>
  <path class="cls-2" d="m246.68,104.62c-24.44,12.24-22.49,51.65-5.31,65.94,30.08,6.1,30.29-56.48,5.9-65.94"/>
  <path class="cls-2" d="m171.17,196.34c6.53,31.04-23.6,62.47-55.01,57.86-19.46-29.79,27.16-70.95,59.19-58.55"/>
  <path class="cls-2" d="m297.37,289.68c-7.11-5.22-14.99-10.26-17.1-19.76-45.06-64.61-104.72,42.5.92,6.17"/>
</svg>